<svg width="542" height="136" viewBox="0 0 542 136" fill="none" xmlns="http://www.w3.org/2000/svg">
<path d="M538.76 20.6411C538.76 31.195 530.831 39.9049 520.607 41.1304C529.655 39.3924 536.236 32.1602 536.236 22.6027C536.236 11.7768 527.761 2.9697 516.932 2.9697C507.378 2.9697 499.367 9.10509 497.629 18.1529C498.855 7.9283 507.565 0 518.119 0C529.517 0.00286324 538.76 9.24539 538.76 20.6411Z" fill="#8B55FF"/>
<rect x="533.767" y="15.0195" width="5.26937" height="13.1886" rx="2.63469" fill="#8B55FF" stroke="white"/>
<path d="M539.536 28.3779V15.1792C540.925 16.476 541.846 18.9088 541.846 21.7785C541.846 24.6483 540.925 27.0811 539.536 28.3779Z" fill="#8B55FF"/>
<rect x="-0.5" y="0.5" width="5.26937" height="13.1886" rx="2.63469" transform="matrix(-1 0 0 1 501.581 14.189)" fill="#8B55FF" stroke="white"/>
<path d="M496.31 28.0473V14.8486C494.92 16.1454 494 18.5782 494 21.448C494 24.3177 494.92 26.7505 496.31 28.0473Z" fill="#8B55FF"/>
<rect x="-0.5" y="-0.5" width="4.27947" height="6.91921" rx="2.13974" transform="matrix(0 -1 -1 0 522.036 41.5659)" fill="#8B55FF" stroke="white"/>
<path d="M1 135C24.0236 108.108 143.087 75.3839 272.778 87.3538C402.469 99.3238 506.5 65.5 512 53.5" stroke="#6C60FE" stroke-width="2" stroke-dasharray="5 5"/>
</svg>
