<svg width="313" height="136" viewBox="0 0 313 136" fill="none" xmlns="http://www.w3.org/2000/svg">
<path d="M309.76 20.4302C309.76 30.8763 301.831 39.4973 291.607 40.7103C300.655 38.99 307.236 31.8317 307.236 22.3719C307.236 11.6566 298.761 2.93937 287.932 2.93937C278.378 2.93937 270.367 9.01209 268.629 17.9675C269.855 7.84732 278.565 0 289.119 0C300.517 0.00283399 309.76 9.15096 309.76 20.4302Z" fill="#8B55FF"/>
<rect x="304.767" y="14.8711" width="5.26937" height="13.0437" rx="2.63469" fill="#8B55FF" stroke="white"/>
<path d="M310.536 28.0883V15.0244C311.925 16.308 312.846 18.7159 312.846 21.5563C312.846 24.3968 311.925 26.8047 310.536 28.0883Z" fill="#8B55FF"/>
<rect x="-0.5" y="0.5" width="5.26937" height="13.0437" rx="2.63469" transform="matrix(-1 0 0 1 272.581 14.0444)" fill="#8B55FF" stroke="white"/>
<path d="M267.31 27.7606V14.6968C265.92 15.9803 265 18.3883 265 21.2287C265 24.0691 265.92 26.4771 267.31 27.7606Z" fill="#8B55FF"/>
<rect x="-0.5" y="-0.5" width="4.27947" height="6.91921" rx="2.13974" transform="matrix(0 -1 -1 0 291.037 45.5659)" fill="#8B55FF" stroke="white"/>
<path d="M1 135C13.2101 107.943 76.3535 75.0181 145.133 87.0615C213.912 99.1049 269.083 65.0736 272 53" stroke="#6C60FE" stroke-width="2" stroke-dasharray="5 5"/>
</svg>
